<svg width="369" height="754" viewBox="0 0 369 754" fill="none" xmlns="http://www.w3.org/2000/svg">
<path d="M242.37 349.998C242.37 349.998 254.359 500.137 253.694 524.744C253.029 549.352 251.033 700.99 251.033 700.99C251.033 700.99 235.071 709.637 218.445 700.99C218.445 700.99 208.469 607.213 203.813 579.281C199.157 551.348 200.487 513.438 200.487 513.438L176.544 454.246L135.195 702.918C135.195 702.918 114.027 708.307 104.051 701.656C104.051 701.656 106.045 654.436 104.051 607.879C102.055 561.324 106.045 527.404 112.031 509.447C112.031 509.447 98.7394 416.336 101.4 353.818L242.37 349.998Z" fill="#201F20"/>
<path d="M101.779 392.235C101.808 392.234 101.838 392.232 101.867 392.227C132.8 386.722 127.72 352.433 127.665 352.088C127.621 351.816 127.365 351.631 127.093 351.674C126.821 351.717 126.635 351.972 126.677 352.244C126.731 352.581 131.653 385.91 101.692 391.242C101.437 391.288 101.259 391.52 101.281 391.778C101.304 392.036 101.52 392.234 101.779 392.235V392.235Z" fill="white"/>
<path d="M245.529 385.244C245.759 385.244 245.96 385.087 246.015 384.864C246.07 384.64 245.965 384.408 245.761 384.301C245.545 384.188 224.138 372.75 225.271 352.193C225.278 352.061 225.232 351.931 225.144 351.833C225.056 351.734 224.931 351.674 224.799 351.667C224.666 351.658 224.536 351.703 224.436 351.792C224.337 351.881 224.278 352.006 224.273 352.139C223.104 373.344 245.076 385.071 245.298 385.188C245.369 385.225 245.449 385.244 245.529 385.244Z" fill="white"/>
<path d="M200.332 522.135C200.348 522.135 200.365 522.134 200.381 522.132C200.513 522.119 200.634 522.054 200.719 521.952C200.803 521.85 200.843 521.718 200.83 521.586C200.814 521.423 199.306 505.219 205.794 494.407C205.936 494.171 205.859 493.864 205.622 493.722C205.386 493.58 205.079 493.657 204.937 493.894C198.276 504.99 199.818 521.519 199.835 521.684C199.86 521.939 200.075 522.135 200.332 522.135Z" fill="white"/>
<g style="mix-blend-mode:overlay" opacity="0.6">
<path d="M242.37 349.998L243.251 361.795C187.657 383.83 101.12 368.449 101.12 368.449L101.4 353.819L242.37 349.998Z" fill="#030F1C"/>
</g>
<g style="mix-blend-mode:overlay" opacity="0.6">
<path d="M176.544 454.246L189.856 404.697C189.856 404.697 196.829 431.531 193.836 460.564C190.843 489.596 193.836 496.996 193.836 496.996L176.544 454.246Z" fill="#030F1C"/>
</g>
<g style="mix-blend-mode:overlay" opacity="0.6">
<path d="M245.285 388.039C245.285 388.039 231.672 389.148 231.276 401.258C230.962 410.85 233.502 447.369 236.162 473.309C238.822 499.246 238.308 548.02 238.813 568.637C239.319 589.254 252.629 586.611 252.629 586.611C252.629 586.611 254.356 527.939 253.37 512.754C252.385 497.57 249.825 437.09 245.285 388.039" fill="white"/>
</g>
<g style="mix-blend-mode:overlay" opacity="0.6">
<path d="M172.664 478.209C172.664 478.209 154.425 477.686 150.358 501.646C145.358 531.097 134.838 616.746 132.622 631.82C130.405 646.896 131.56 665.184 141.253 666.485L172.664 478.209Z" fill="white"/>
</g>
<path fill-rule="evenodd" clip-rule="evenodd" d="M136.692 702.602L104.334 699.17L78.4427 740.617H142.273L136.692 702.602ZM284.037 728.254L249.06 702.918H220.129L216.687 740.617H312.471C312.138 738.274 310.822 731.709 306.152 730.065L284.037 728.254Z" fill="#6FA3EF"/>
<path fill-rule="evenodd" clip-rule="evenodd" d="M128.583 710.44C128.583 709.348 127.698 708.463 126.607 708.463H107.689C106.598 708.463 105.713 709.348 105.713 710.44C105.713 711.531 106.598 712.416 107.689 712.416H126.607C127.698 712.416 128.583 711.531 128.583 710.44ZM124.706 715.24C125.798 715.24 126.683 716.125 126.683 717.216C126.683 718.308 125.798 719.193 124.706 719.193H105.789C104.697 719.193 103.812 718.308 103.812 717.216C103.812 716.125 104.697 715.24 105.789 715.24H124.706ZM122.944 721.708C124.036 721.708 124.921 722.593 124.921 723.685C124.921 724.776 124.036 725.661 122.944 725.661H104.027C102.935 725.661 102.05 724.776 102.05 723.685C102.05 722.593 102.935 721.708 104.027 721.708H122.944ZM273.699 720.766H256.136C255.047 720.766 254.164 721.649 254.164 722.738C254.164 723.826 255.047 724.709 256.136 724.709H279.142L273.699 720.766ZM247.157 714.317H264.721L270.163 718.258H247.157C246.069 718.258 245.187 717.376 245.187 716.287C245.187 715.199 246.069 714.317 247.157 714.317ZM256.656 708.463H239.093C238.005 708.463 237.122 709.345 237.122 710.434C237.122 711.522 238.005 712.405 239.093 712.405H262.099L256.656 708.463Z" fill="white"/>
<path fill-rule="evenodd" clip-rule="evenodd" d="M135.735 695.525C137.008 695.525 138.04 696.557 138.04 697.829V700.511C138.04 701.784 137.008 702.815 135.735 702.815H103.892C102.619 702.815 101.588 701.784 101.588 700.511V697.829C101.588 696.557 102.619 695.525 103.892 695.525H135.735ZM233.647 740.617C233.647 740.617 236.643 724.709 218.14 724.709L216.688 740.617C216.688 740.617 216.182 747.946 218.582 747.946H306.42C309.213 748.085 311.673 746.124 312.158 743.369L312.471 740.617H233.647ZM249.883 695.649H218.126C216.856 695.649 215.826 696.678 215.826 697.948V700.619C215.826 701.89 216.856 702.92 218.127 702.92H249.882C251.151 702.92 252.18 701.891 252.18 700.622V697.946C252.18 696.677 251.151 695.649 249.883 695.649ZM128.913 727.258H91.8018C88.2587 727.258 84.8606 728.666 82.3553 731.171C79.8499 733.676 78.4424 737.074 78.4424 740.618V747.966H142.272V740.618C142.272 733.239 136.291 727.258 128.913 727.258Z" fill="#2F65BC"/>
<path d="M136.279 66.821C136.279 50.859 153.906 55.9472 156.906 56.9472C159.906 57.9472 166.906 34.9472 166.906 34.9472C166.906 34.9472 202.906 31.9472 209.906 38.9472C209.906 38.9472 211.906 68.9472 210.906 87.9472C209.906 106.947 203.801 114.929 196.801 114.929C194.587 114.804 192.412 114.296 190.372 113.428V148.404L148.028 126.457L153.243 85.1392C153.029 85.0133 152.906 84.9472 152.906 84.9472C152.906 84.9472 136.279 81.8963 136.279 66.821Z" fill="#F7B17D"/>
<path d="M211.186 61.057C211.186 61.057 219.906 52.9472 220.906 35.9472C221.906 18.9472 218.305 0.977873 207.664 1.64295C197.023 2.30803 183.499 2.93728 172.858 1.62504C162.217 0.312803 138.052 6.07683 136.279 24.6991C130.598 33.3512 127.947 43.643 128.741 53.9627C130.071 71.2549 135.83 94.0694 153.792 99.1883L154.624 85.4987C154.624 85.4987 136.279 69.9524 142.046 62.6124C149.448 53.1923 159.778 61.722 160.887 68.1512C160.887 68.1512 164.187 64.8172 164.655 52.6326C164.655 52.6326 173.523 46.2035 173.745 37.3357C173.745 37.3357 202.122 34.4537 208.107 39.3309L211.186 61.057Z" fill="#161B36"/>
<g style="mix-blend-mode:overlay" opacity="0.6">
<path d="M190.338 113.376C190.338 113.376 175.928 106.673 171.273 101.795C171.273 101.795 172.348 114.945 181.865 124.187C191.381 133.428 190.338 125.96 190.338 125.96L190.338 113.376Z" fill="#030F1C"/>
</g>
<ellipse cx="1.87054" cy="3.076" rx="1.87054" ry="3.076" transform="matrix(-1 0 0 1 190.341 58.8018)" fill="#161B36"/>
<ellipse cx="1.87054" cy="3.076" rx="1.87054" ry="3.076" transform="matrix(-1 0 0 1 208.849 60.0801)" fill="#161B36"/>
<path d="M192.336 49.5738C191.671 48.8256 190.756 48.2436 188.013 48.4099C185.269 48.5762 181.113 51.1534 182.027 51.8185C182.942 52.4835 185.685 50.2389 187.847 50.9871C190.008 51.7353 191.249 52.3507 191.976 51.9433C192.89 51.4305 192.656 49.9335 192.336 49.5738Z" fill="#161B36"/>
<path d="M204.225 48.8105C205.096 48.3171 206.149 48.0616 208.692 49.1048C211.235 50.148 214.337 53.9292 213.257 54.2634C212.176 54.5976 210.305 51.5874 208.017 51.5976C205.73 51.6078 204.357 51.7896 203.801 51.1694C203.101 50.3888 203.806 49.0477 204.225 48.8105Z" fill="#161B36"/>
<g style="mix-blend-mode:overlay" opacity="0.6">
<path d="M200.167 82.6265C201.132 82.6619 202.089 82.4398 202.939 81.9829C203.497 81.6711 203.886 81.1252 203.998 80.4956C204.205 79.1924 202.873 77.1753 201.243 74.8667C200.828 74.3152 200.448 73.7382 200.105 73.1392C199.773 72.4287 199.868 65.9536 200.151 60.1045L199.152 60.0557C199.054 62.0845 198.595 72.2686 199.199 73.562C199.563 74.2172 199.973 74.8459 200.426 75.4434C201.453 76.8975 203.171 79.3311 203.011 80.3384C202.944 80.6795 202.724 80.9714 202.415 81.1308C200.98 81.748 199.364 81.7981 197.893 81.271L197.587 82.2231C198.421 82.4891 199.292 82.6251 200.167 82.6265Z" fill="#030F1C"/>
</g>
<path d="M201.378 92.1404C201.463 91.8453 201.426 91.5284 201.276 91.2603C201.126 90.9922 200.876 90.795 200.58 90.7124C199.109 90.2866 196.397 89.4854 194.331 88.7821C192.177 87.9282 190.083 86.932 188.061 85.8C187.709 85.6085 187.283 85.6122 186.934 85.8096C186.585 86.0071 186.362 86.3704 186.345 86.771C186.205 89.8489 186.575 95.8599 191.415 97.0852C197.301 98.5753 200.383 95.3909 201.378 92.1404Z" fill="#161B36"/>
<path d="M198.819 95.9775C198.819 95.9775 193.754 88.903 186.519 90.5191C186.519 90.5191 186.507 96.0444 191.172 97.2895C196.194 98.6302 198.819 95.9775 198.819 95.9775Z" fill="#E55151"/>
<path d="M147.313 63.4101C152.101 61.7827 156.56 72.2231 156.747 72.6684C156.855 72.923 156.735 73.2161 156.48 73.3232C156.226 73.4303 155.933 73.3107 155.826 73.0561C155.05 71.2539 154.1 69.5315 152.99 67.9135C151.981 67.7379 150.942 67.9285 150.06 68.4511C149.185 69.1036 148.626 70.096 148.521 71.1831C148.482 71.4242 148.273 71.6012 148.029 71.6015C148.001 71.6016 147.974 71.5993 147.947 71.5947C147.816 71.5731 147.699 71.5004 147.622 71.3926C147.545 71.2848 147.513 71.1508 147.535 71.02C147.709 68.6014 149.773 66.7585 152.196 66.8593C150.771 65.0966 149.147 63.8416 147.635 64.3574C147.466 64.4148 147.279 64.3775 147.144 64.2597C147.01 64.1418 146.949 63.9613 146.984 63.7861C147.018 63.6108 147.144 63.4675 147.313 63.4101H147.313Z" fill="#0B122D"/>
<path d="M190.372 113.929C190.608 113.929 190.812 113.764 190.861 113.533C190.91 113.302 190.791 113.068 190.575 112.972C190.41 112.899 173.979 105.549 167.045 96.664C166.875 96.4464 166.561 96.4077 166.343 96.5776C166.126 96.7475 166.087 97.0616 166.257 97.2792C173.347 106.363 189.486 113.583 190.169 113.886C190.233 113.914 190.302 113.929 190.372 113.929Z" fill="#0B122D"/>
<path d="M169.201 30.9633C169.288 30.9632 169.374 30.9403 169.45 30.8968C177.73 26.1322 176.515 14.495 176.459 14.0018C176.447 13.8689 176.381 13.7467 176.276 13.6636C176.172 13.5805 176.038 13.5435 175.906 13.5614C175.631 13.5925 175.434 13.8398 175.465 14.1142C175.478 14.2284 176.659 25.5952 168.951 30.0297C168.754 30.1426 168.658 30.3736 168.717 30.5926C168.775 30.8115 168.974 30.9636 169.201 30.9633L169.201 30.9633Z" fill="white"/>
<path d="M153.28 44.4867C153.408 44.4869 153.532 44.4372 153.625 44.3481C162.096 36.2568 158.745 23.1508 158.71 23.0195C158.639 22.7525 158.366 22.5933 158.099 22.664C157.832 22.7346 157.672 23.0083 157.743 23.2753C157.776 23.4013 160.973 35.9467 152.935 43.6254C152.787 43.7665 152.74 43.9832 152.816 44.1728C152.892 44.3623 153.076 44.4866 153.28 44.4867H153.28Z" fill="white"/>
<path fill-rule="evenodd" clip-rule="evenodd" d="M327.56 316.84L225.076 367.562C223.085 368.547 222.27 370.96 223.255 372.95L257.427 441.993C257.9 442.949 258.733 443.678 259.743 444.019C260.754 444.361 261.858 444.287 262.814 443.814L365.3 393.091C366.256 392.618 366.984 391.785 367.326 390.774C367.667 389.764 367.593 388.659 367.12 387.703L357.001 367.257L359.233 366.152C359.556 365.993 359.801 365.712 359.916 365.371C360.032 365.03 360.007 364.658 359.847 364.336L357.798 360.196L359.467 359.371C360.014 359.1 360.238 358.437 359.967 357.89L352.315 342.428C352.044 341.882 351.381 341.658 350.834 341.928L349.166 342.754L347.117 338.615C346.958 338.293 346.677 338.047 346.336 337.932C345.995 337.817 345.623 337.842 345.301 338.001L343.068 339.106L332.949 318.66C332.476 317.704 331.642 316.975 330.632 316.634C329.621 316.293 328.516 316.367 327.56 316.84ZM0.760712 446.531V446.529C0.760712 440.445 11.334 435.624 17.4174 435.624H56.0727C56.5123 433.036 57.7196 430.64 59.5381 428.746C63.7519 424.264 71.0039 421.991 81.0927 421.991C90.8867 421.991 98.0244 424.288 102.309 428.818C104.123 430.713 105.387 433.065 105.966 435.624H148.72C154.803 435.624 159.735 440.556 159.735 446.64V532.609C159.735 541.324 149.522 546.291 143.438 546.291L143.11 546.284C142.98 546.294 142.851 546.294 142.722 546.294H11.4223C5.33795 546.289 0.406708 541.358 0.402344 535.274V449.304C0.399384 448.368 0.519897 447.435 0.760712 446.531ZM101.83 435.624C101.335 434.107 100.506 432.72 99.4033 431.566C95.9531 427.919 89.622 425.991 81.0927 425.991C72.3535 425.991 65.9365 427.86 62.5361 431.397C61.3777 432.57 60.5508 434.028 60.1396 435.624H101.83Z" fill="#36C9D8"/>
<path d="M59.8378 252.03C62.4079 244.56 77.9579 173.36 88.8481 159.5C100.819 144.254 106.566 142.76 112.862 141.051C124.033 137.609 144.3 132.812 144.3 132.812L177.504 139.556L197.112 134.207C197.112 134.207 226.768 146.137 235.04 153.372L235.041 153.368C235.041 153.368 248.169 163.194 251.035 176.268C253.9 189.342 252.777 269.67 252.442 273.702C252.241 276.13 267.834 312.06 280.265 340.247L249.852 355.299C247.344 351.423 244.763 347.424 242.212 343.459C243.032 348.572 242.822 353.08 239.904 355.603C216.418 375.903 98.726 358.992 98.726 358.992C98.6369 347.48 99.8492 335.995 102.34 324.755C107.474 303.149 106.439 292.28 105.47 279.661C105.199 276.127 104.542 265.95 103.723 252.978L97.6078 268.84C95.8181 283.66 88.3578 388.001 88.3578 388.001C78.8878 383.721 63.9445 388.001 63.9445 388.001C63.9445 388.001 58.1376 300.666 57.8075 285.046C57.4775 269.416 57.1879 259.71 59.8378 252.03Z" fill="#3268AE"/>
<g style="mix-blend-mode:overlay" opacity="0.6">
<path d="M189.343 152.355L168.816 142.537L177.505 139.556L189.343 152.355Z" fill="#030F1C"/>
</g>
<path d="M189.027 365.971C189.291 365.971 189.51 365.766 189.526 365.502C189.999 357.727 188.644 335.479 187.333 313.964C185.996 292.014 184.613 269.316 185.171 262.053C186.215 248.484 188.219 185.999 187.298 174.444C186.394 163.11 178.07 140.143 177.986 139.912C177.891 139.653 177.605 139.519 177.345 139.614C177.086 139.708 176.952 139.995 177.046 140.254C177.129 140.484 185.408 163.324 186.302 174.524C187.22 186.048 185.217 248.426 184.174 261.976C183.611 269.308 184.996 292.041 186.335 314.025C187.644 335.51 188.998 357.727 188.528 365.441C188.511 365.717 188.721 365.954 188.997 365.97L189.027 365.971Z" fill="#0B122D"/>
<g style="mix-blend-mode:overlay" opacity="0.6">
<path d="M104.78 269.521C104.438 263.849 104.073 258.234 103.711 253.01L122.404 204.52C122.996 210.366 125.255 237.446 119.543 264.192C111.342 302.584 126.197 327.619 140.68 342.239C152.977 354.652 177.85 357.093 195.864 365.432C161.815 368.121 98.727 358.993 98.727 358.993C98.727 358.993 98.8798 342.98 103.757 318.294C107.689 298.385 105.853 287.311 104.78 269.521Z" fill="#030F1C"/>
</g>
<path d="M235.582 296.15L235.601 296.15C235.877 296.139 236.092 295.908 236.082 295.632C234.146 242.455 237.679 179.693 237.715 179.065C237.723 178.932 237.678 178.802 237.589 178.703C237.501 178.604 237.377 178.545 237.245 178.537C237.111 178.526 236.979 178.569 236.879 178.659C236.779 178.748 236.721 178.874 236.717 179.008C236.681 179.636 233.145 242.445 235.082 295.668C235.092 295.937 235.313 296.15 235.582 296.15Z" fill="#0B122D"/>
<path d="M225.939 337.81C226.031 337.81 226.121 337.784 226.199 337.736C234.799 332.495 237.564 321.651 237.677 321.192C237.742 320.925 237.578 320.655 237.311 320.589C237.044 320.523 236.774 320.685 236.706 320.952C236.679 321.06 233.921 331.859 225.679 336.883C225.488 336.999 225.397 337.229 225.458 337.445C225.518 337.66 225.715 337.81 225.939 337.81Z" fill="#0B122D"/>
<g style="mix-blend-mode:overlay" opacity="0.6">
<path opacity="0.6" d="M242.032 160.097C242.032 160.097 230.635 151.919 218.766 149.375C211.022 147.631 203.449 145.197 196.138 142.103L199.397 135.144C199.397 135.144 225.111 145.841 232.333 151.323C235.881 153.879 239.134 156.822 242.032 160.097" fill="white"/>
</g>
<g style="mix-blend-mode:overlay" opacity="0.6">
<path d="M171.391 152.786L128.073 136.857L144.3 132.812L171.391 152.786Z" fill="#030F1C"/>
</g>
<g style="mix-blend-mode:overlay" opacity="0.6">
<path d="M181.825 186.37C181.826 187.227 182.521 187.922 183.378 187.921C184.234 187.921 184.929 187.226 184.929 186.369C184.928 185.512 184.234 184.818 183.377 184.818C182.965 184.818 182.57 184.981 182.279 185.273C181.988 185.564 181.825 185.959 181.825 186.37Z" fill="#030F1C"/>
</g>
<g style="mix-blend-mode:overlay" opacity="0.6">
<path d="M180.735 217.132C180.735 217.76 181.112 218.326 181.692 218.567C182.272 218.808 182.94 218.676 183.384 218.232C183.829 217.788 183.962 217.12 183.722 216.54C183.482 215.96 182.916 215.581 182.288 215.581C181.431 215.581 180.736 216.275 180.735 217.132Z" fill="#030F1C"/>
</g>
<g style="mix-blend-mode:overlay" opacity="0.6">
<path d="M178.167 250.933C178.168 251.79 178.863 252.484 179.719 252.484C180.576 252.483 181.271 251.788 181.27 250.931C181.27 250.075 180.576 249.38 179.719 249.38C179.307 249.38 178.912 249.544 178.621 249.835C178.33 250.126 178.167 250.521 178.167 250.933Z" fill="#030F1C"/>
</g>
<g style="mix-blend-mode:overlay" opacity="0.6">
<path d="M177.612 282.501C177.612 283.129 177.989 283.695 178.569 283.935C179.149 284.176 179.816 284.044 180.261 283.6C180.705 283.157 180.838 282.489 180.598 281.909C180.358 281.329 179.793 280.951 179.165 280.95C178.308 280.951 177.613 281.644 177.612 282.501Z" fill="#030F1C"/>
</g>
<g style="mix-blend-mode:overlay" opacity="0.6">
<path d="M179.164 326.945C179.163 327.573 179.541 328.139 180.121 328.38C180.701 328.62 181.369 328.488 181.813 328.044C182.258 327.6 182.391 326.932 182.15 326.352C181.91 325.772 181.344 325.394 180.716 325.394C179.859 325.394 179.165 326.088 179.164 326.945Z" fill="#030F1C"/>
</g>
<g style="mix-blend-mode:overlay" opacity="0.6">
<path d="M237.416 319.946C237.206 315.356 236.937 310.899 236.65 306.545C240.685 314.97 243.275 324.052 241.559 338.002C240.019 331.487 237.63 324.636 237.416 319.946Z" fill="#030F1C"/>
</g>
<path d="M237.822 274.35C237.924 274.35 238.024 274.319 238.108 274.26C244.99 269.463 252.371 272.989 252.445 273.025C252.693 273.147 252.992 273.045 253.114 272.797C253.236 272.55 253.134 272.25 252.887 272.128C252.807 272.089 244.914 268.298 237.536 273.44C237.357 273.565 237.28 273.792 237.345 274C237.411 274.208 237.604 274.35 237.822 274.35V274.35Z" fill="#0B122D"/>
<g style="mix-blend-mode:overlay" opacity="0.6">
<path d="M280.265 340.247L274.509 343.096C266.208 325.86 248.938 280.673 247.063 276.189C245.007 271.274 247.762 204.773 248.93 200.158C250.097 195.545 252.69 193.944 252.69 193.944C252.69 193.944 253.444 253.03 252.442 273.702C258.06 289.854 271.666 320.486 280.265 340.247Z" fill="white"/>
</g>
<path d="M112.043 217.681C112.145 217.681 112.244 217.65 112.328 217.592C126.646 207.692 126.733 186.082 126.732 185.864C126.727 185.59 126.504 185.369 126.23 185.366C126.097 185.367 125.97 185.42 125.877 185.514C125.783 185.608 125.731 185.736 125.732 185.868C125.733 186.08 125.64 207.172 111.759 216.77C111.579 216.895 111.501 217.122 111.566 217.33C111.632 217.539 111.825 217.681 112.043 217.681V217.681Z" fill="#0B122D"/>
<path d="M84.6762 277.71C84.8556 277.71 85.0211 277.614 85.1098 277.458C88.9731 270.702 97.5942 269.348 97.6811 269.335C97.9543 269.295 98.1429 269.04 98.1025 268.767C98.062 268.494 97.8078 268.305 97.5346 268.346C97.1616 268.401 88.35 269.776 84.2426 276.962C84.154 277.117 84.1545 277.307 84.2439 277.461C84.3333 277.615 84.498 277.71 84.6762 277.71L84.6762 277.71Z" fill="#0B122D"/>
<path fill-rule="evenodd" clip-rule="evenodd" d="M148.448 115.639L144.3 132.812L171.391 152.786C171.391 152.786 172.524 144.554 177.504 139.556L189.343 152.355L197.112 134.207L189.591 125.738C189.591 125.738 185.941 135.467 177.504 139.556C164.65 136.488 153.929 127.664 148.448 115.639ZM170.255 202.447L170.384 207.846L137.472 208.636L137.342 203.237L170.255 202.447Z" fill="#FCC92C"/>
<g style="mix-blend-mode:overlay" opacity="0.6">
<path fill-rule="evenodd" clip-rule="evenodd" d="M331.526 324.311L339.679 340.783L337.907 341.66C337.584 341.82 337.339 342.101 337.224 342.442C337.109 342.782 337.134 343.155 337.293 343.477L350.023 369.198C350.355 369.869 351.168 370.144 351.839 369.812L353.611 368.935L361.764 385.407C362.19 386.267 362.256 387.26 361.949 388.169C361.642 389.078 360.986 389.827 360.127 390.253L266.544 436.569C265.684 436.995 264.69 437.061 263.782 436.754C262.873 436.447 262.124 435.792 261.698 434.932L231.46 373.836C231.035 372.977 230.968 371.983 231.275 371.074C231.582 370.166 232.237 369.416 233.097 368.991L326.681 322.674C327.54 322.248 328.534 322.182 329.442 322.489C330.351 322.796 331.101 323.451 331.526 324.311ZM315.273 405.065C315.63 404.89 315.903 404.58 316.032 404.203C316.161 403.827 316.135 403.414 315.959 403.057L305.825 382.41C305.46 381.666 304.561 381.359 303.818 381.724C303.074 382.089 302.767 382.988 303.132 383.732L313.266 404.379C313.631 405.123 314.529 405.429 315.273 405.065ZM296.134 413.97C296.005 414.347 295.732 414.657 295.374 414.832C294.631 415.196 293.732 414.889 293.367 414.146L278.166 383.175C277.801 382.432 278.108 381.533 278.852 381.168C279.595 380.803 280.494 381.11 280.859 381.853L296.06 412.824C296.236 413.181 296.263 413.593 296.134 413.97ZM261.78 371.538C261.036 371.903 260.728 372.802 261.093 373.546L283.418 419.029C283.783 419.773 284.682 420.08 285.425 419.715C286.169 419.35 286.476 418.451 286.111 417.707L263.787 372.224C263.422 371.48 262.523 371.173 261.78 371.538ZM281.797 365.42C281.432 364.676 281.74 363.777 282.483 363.412C283.227 363.047 284.126 363.354 284.491 364.098L306.01 407.94C306.375 408.684 306.068 409.583 305.324 409.948C304.58 410.313 303.681 410.006 303.316 409.262L281.797 365.42ZM304.329 357.61C303.585 357.975 303.277 358.874 303.642 359.617L323.215 399.495C323.58 400.239 324.479 400.546 325.223 400.181C325.967 399.816 326.274 398.917 325.909 398.173L306.336 358.295C305.971 357.552 305.072 357.245 304.329 357.61ZM307.114 341.536C306.749 340.792 307.056 339.893 307.8 339.528C308.544 339.163 309.442 339.47 309.807 340.213L335.858 393.29C336.223 394.034 335.916 394.933 335.172 395.298C334.428 395.663 333.529 395.356 333.164 394.612L307.114 341.536Z" fill="white"/>
</g>
<g style="mix-blend-mode:overlay" opacity="0.6">
<path fill-rule="evenodd" clip-rule="evenodd" d="M153.847 468.802V535.052C153.841 541.034 149.065 545.918 143.086 546.059L143.547 546.069C149.631 546.069 159.844 541.102 159.844 532.387V446.418C159.844 440.334 154.912 435.402 148.829 435.402H17.5266C11.4428 435.402 0.869553 440.223 0.869553 446.307L0.87056 446.323C2.13048 441.468 6.511 438.076 11.5273 438.072H142.827C148.91 438.072 153.842 443 153.847 449.082V466.752C153.742 466.754 153.638 466.771 153.537 466.802L81.9623 489.504C80.9637 487.812 79.1449 486.774 77.18 486.774C75.2151 486.775 73.3968 487.814 72.3989 489.506L0.817322 466.802C0.716843 466.771 0.612457 466.754 0.507263 466.752V468.802L71.7057 491.387C71.6495 491.7 71.6204 492.018 71.6186 492.337V494.274C71.6186 497.347 74.109 499.837 77.1811 499.837C80.2532 499.837 82.7436 497.347 82.7436 494.274V492.337C82.7418 492.016 82.7124 491.696 82.6557 491.38L153.847 468.802Z" fill="#030F1C"/>
</g>
<path fill-rule="evenodd" clip-rule="evenodd" d="M64.8647 387.761C64.7543 392.468 64.2822 398.575 62.7177 402.324C60.538 407.545 60.3735 424.049 62.5246 427.879C63.2818 429.023 64.3576 429.921 65.6191 430.461C66.9526 431.307 68.3738 432.006 69.8579 432.545C70.5382 432.717 71.2222 432.479 71.927 432.234C72.5891 432.004 73.2697 431.768 73.9829 431.858C74.6496 431.942 75.3841 432.322 76.1272 432.707C76.9721 433.145 77.828 433.588 78.6079 433.608C79.4833 433.631 80.3799 433.262 81.2621 432.899C82.0013 432.595 82.7303 432.295 83.4284 432.233C84.3163 432.154 85.1967 432.324 86.0414 432.487C87.0468 432.68 88.0015 432.864 88.8579 432.608C89.9441 432.283 92.6801 429.736 93.1079 429.129C94.1512 427.647 93.5323 424.843 93.0317 422.574C92.6743 420.955 92.3772 419.609 92.7881 419.212C93.1776 418.835 93.496 419.411 94.028 420.375C94.8432 421.851 96.16 424.237 99.0029 425.491C103.703 427.564 106.394 423.339 105.775 422.103C105.155 420.868 95.8525 410.433 93.3017 407.755C91.4671 405.829 90.328 403.117 89.4311 400.981C89.0796 400.144 88.7653 399.396 88.4609 398.818C87.7793 397.526 87.5573 391.743 87.4863 387.638C79.4453 384.534 68.1289 386.951 64.8647 387.761ZM312.693 411.574C314.269 411.001 316.028 411.644 316.863 413.098L319.102 416.721C319.548 417.442 319.652 418.322 319.387 419.126C319.123 419.931 318.516 420.577 317.731 420.893L316.852 421.245C315.61 421.744 314.189 421.318 313.426 420.219L310.996 416.72C310.413 415.838 310.266 414.739 310.597 413.735C310.928 412.732 311.7 411.936 312.693 411.574ZM327.464 411.649C328.269 412.521 328.964 413.488 329.532 414.529C330.116 416.531 328.737 419.457 325.75 417.904C324.308 416.901 322.975 415.748 321.775 414.465L327.464 411.649ZM305.054 415.327V415.327C303.934 415.532 302.984 416.269 302.508 417.303C302.032 418.337 302.089 419.538 302.662 420.521L304.26 423.436C304.824 424.466 306.025 424.97 307.155 424.65L308.736 424.203C309.436 424.006 310.016 423.515 310.327 422.858C310.639 422.201 310.651 421.441 310.362 420.774L308.914 417.44C308.288 415.912 306.678 415.031 305.054 415.327ZM295.68 418.577C297.15 418.37 298.55 419.27 298.972 420.693L300.099 423.558C300.336 424.16 300.281 424.836 299.95 425.392C299.62 425.947 299.052 426.318 298.411 426.397L296.722 426.606C295.814 426.718 294.939 426.227 294.561 425.393L293.266 422.53C292.972 421.683 293.072 420.748 293.539 419.983C294.007 419.218 294.792 418.702 295.68 418.577Z" fill="#F7B17D"/>
</svg>
